<svg width="1076" height="880" viewBox="0 0 1076 880" fill="none" xmlns="http://www.w3.org/2000/svg">
<path d="M1072.04 -164.044H3.95581V904.044H1072.04V-164.044Z" fill="white"/>
<path fill-rule="evenodd" clip-rule="evenodd" d="M356.029 793.28H723.926V813.059H356.029V793.28Z" fill="#D8D8D8"/>
<path fill-rule="evenodd" clip-rule="evenodd" d="M356.029 753.72H723.926V773.5H356.029V753.72Z" fill="#D8D8D8"/>
<path d="M751.618 682.515H324.382V714.162H751.618V682.515Z" fill="#868686"/>
<path d="M921.721 524.28H652.721C630.873 524.28 613.162 541.991 613.162 563.838C613.162 585.686 630.873 603.397 652.721 603.397H921.721C943.568 603.397 961.279 585.686 961.279 563.838C961.279 541.991 943.568 524.28 921.721 524.28Z" fill="#3EC6FF"/>
<path d="M530.088 528.235H110.765V599.441H530.088V528.235Z" stroke="#DDDDDD" stroke-width="2"/>
<path fill-rule="evenodd" clip-rule="evenodd" d="M43.5148 17.9266C43.5148 9.18762 50.5994 2.10303 59.3383 2.10303H1008.75C1017.49 2.10303 1024.57 9.18762 1024.57 17.9266V421.427C1024.57 430.165 1017.49 437.25 1008.75 437.25H59.3383C50.5994 437.25 43.5148 430.165 43.5148 421.427V17.9266Z" fill="#3EC6FF"/>
<path fill-rule="evenodd" clip-rule="evenodd" d="M534.044 314.618C586.479 314.618 628.985 272.112 628.985 219.676C628.985 167.242 586.479 124.735 534.044 124.735C481.609 124.735 439.103 167.242 439.103 219.676C439.103 272.112 481.609 314.618 534.044 314.618Z" stroke="white" stroke-width="2"/>
<path fill-rule="evenodd" clip-rule="evenodd" d="M490.917 214.316L540.619 178.25C545.417 174.769 552.419 177.947 552.419 183.606L552.415 255.746C552.415 261.406 545.409 264.583 540.615 261.102L490.913 225.026C487.167 222.306 487.167 217.036 490.917 214.316Z" stroke="white" stroke-width="2"/>
</svg>
