<svg width="53" height="53" viewBox="0 0 53 53" fill="none" xmlns="http://www.w3.org/2000/svg">
<path d="M5.37504 0.458374C2.64629 0.458374 0.458374 2.64629 0.458374 5.37504V32.4167C0.458374 35.1455 2.64629 37.3334 5.37504 37.3334H15.2084V47.1667C15.2084 49.8955 17.3963 52.0834 20.125 52.0834H47.1667C49.8955 52.0834 52.0834 49.8955 52.0834 47.1667V20.125C52.0834 17.3963 49.8955 15.2084 47.1667 15.2084H37.3334V5.37504C37.3334 2.64629 35.1455 0.458374 32.4167 0.458374H5.37504ZM5.37504 5.37504H32.4167V15.2084H20.125C17.3963 15.2084 15.2084 17.3963 15.2084 20.125V32.4167H5.37504V5.37504ZM20.125 20.125H32.4167V32.4167H20.125V20.125ZM37.3334 20.125H47.1667V47.1667H20.125V37.3334H32.4167C35.1455 37.3334 37.3334 35.1455 37.3334 32.4167V20.125Z" fill="#0AB1F7"/>
</svg>
